<?xml version="1.0" encoding="UTF-8"?>
<svg xmlns="http://www.w3.org/2000/svg" version="1.1" viewBox="0 0 967 531">
  <defs>
    <style>
      .cls-1 {
        fill: #94d669;
      }
    </style>
  </defs>
  <!-- Generator: Adobe Illustrator 28.6.0, SVG Export Plug-In . SVG Version: 1.2.0 Build 709)  -->
  <g>
    <g id="Calque_1">
      <g id="_x23_94d669ff">
        <path class="cls-1" d="M568.5,13.9c3.1-.7,6.3-.4,9.5-.4,16.6.2,33.4-.8,49.9,1.9,21.3,3.5,42.1,10.7,60.3,22.3,4.5,2.6,9.3,5.7,10.9,11,1.1,4.8,1.1,10.4-1.9,14.6-3.3,5.4-9.8,8.5-16.1,7.9-6.1-1-10.9-5.2-16.2-8-12.7-7.3-26.9-11.8-41.3-14.3-16.4-2.5-33.1-1-49.6-1.4-6,.3-12.4-2.5-15.4-7.8-2.6-3.9-2.4-8.9-2-13.4,1.1-6,6.1-10.8,11.9-12.3Z"/>
        <path class="cls-1" d="M102.2,95.2c3-5.2,8.7-8.7,14.7-8.6h433c21.1.2,42.3-1,63.2,2.8,34.1,5.6,66.4,22,91,46.4,10.9,10.3,20.1,22.2,27.9,35,7.1,11.6,12.8,24,19.3,36,27.7,52.3,55,104.7,82.6,157,2.2,3.9,2.1,8.5,1.4,12.7-3,11.1-18.7,16.1-27.3,8.3-4.1-4-6-9.5-8.8-14.4-13.6-25.8-27-51.8-40.7-77.5-2.7.8-4.9,2.7-7,4.5-8.1,7.2-15.7,15.2-21.4,24.5-11.5,18.7-17.1,41.2-14.7,63,1.9,24.1,12.9,47.5,30.5,64.1,29.3,29.9,78.2,38.1,115.5,19.2,35.3-16.6,60.3-54.9,58.2-94.3.3-39.6-25.8-77.2-62.1-92.4-9.1-4-18.8-6.4-28.6-7.4-6.6-.5-12.2-5.6-14.3-11.7-.9-4.4-.9-9.3,1.5-13.2,3.4-5.6,10-9.2,16.6-8.5,36.9,3.8,71.5,24.2,93.7,53.8,25.3,33.7,33.9,79.6,21.6,120-9.7,33-32.6,62-62.4,79.2-18.2,10.6-38.8,16.8-59.8,18.3-10.3,1.3-20.7-.2-31-1.7-18.9-3.3-37.3-10.4-53.1-21.3-30.9-20.5-52.8-54.1-58.9-90.7-2.2-11.3-1.8-22.8-1.5-34.2,1.5-15.9,5.6-31.6,12.5-46,8-16.7,19.4-31.6,33-44,4.8-4.4,10.4-7.8,15.4-12-11.5-21.4-22.7-43.1-34.1-64.6-5.4-9.9-11.3-19.6-18.8-28.1-9.4-11.3-21.1-20.6-33.5-28.5-17-10.4-36.3-16.9-56.1-19.3-13.9-1.7-28-.7-42-1-147.3,0-294.7,0-442,0-7.4.3-14.1-5.7-15.4-12.8-.4-4.2-.7-8.8,1.7-12.6Z"/>
        <path class="cls-1" d="M204.7,177.1c1.9-7.1,8.8-12.9,16.3-12.5,77.4,0,154.7,0,232.1,0,11.3.2,23.1,3,31.9,10.4,4.8,4.2,9.6,8.6,12.6,14.3,5.5,9.8,8.2,21.6,5.9,32.7-1.2,7.8-4.5,15.1-9,21.5-35.4,48.6-70.8,97.2-106.2,145.8-3,4.3-8,7-13.2,7.1-8.7.7-17.1-6.7-17.5-15.5-.5-4.5,1.5-8.8,4.1-12.3,19.2-26.5,38.5-52.9,57.7-79.4.5-1,1.8-2.1,1-3.2-28.1-15.9-63.8-16.9-92.8-2.8-17.7,8.6-33.5,21.9-43.3,39.1,12,.2,23.9,0,35.9,0,6,0,12,3.2,14.9,8.5,2.2,3.8,2.1,8.5,1.5,12.8-2.1,8-10.5,12.5-18.4,12.5-49.4,0-98.7,0-148.1,0-5.4,0-11.3-1.1-15-5.3-6.3-6-6.4-17.2,0-23.2,3.4-3.4,8.2-5.4,13.1-5.4,26.1-.1,52.2.2,78.3-.1,13.2-30.9,38.1-56.7,68.9-70.4,16-7,33.3-12,50.9-11.7,10.5-.1,21.1-.5,31.3,2.1,15.4,3,29.9,9.2,43.6,16.7,2.7-2.7,4.7-6.1,7-9.1,5.9-8.1,11.8-16.2,17.7-24.3,2.7-3.7,5.2-7.9,4.9-12.6-.4-7.9-7.5-14.7-15.5-14.5-78,0-156.1,0-234.1,0-6.2.3-12.1-3.5-14.9-8.9-2.2-3.8-2-8.4-1.4-12.5Z"/>
        <path class="cls-1" d="M563.6,165c2.7-.7,5.6-.4,8.4-.5,8,.2,16.2-.4,24.2.8,20.2,2.2,40,10.5,54.4,25.1,12.6,12.1,21.5,27.9,25.6,44.8,2.4,8.7,1.6,17.8,1.8,26.7.3,12.7-3.9,25-9.3,36.2-11,22.3-21.9,44.7-33.2,66.8-7.3,14-21.3,24.4-36.9,27.1-11.2,1.5-23,0-32.8-5.9-17.8-10-28.2-31.6-24.4-51.7,1.1-7.5,4.1-14.4,7.5-21.2,8.6-18.3,17.5-36.6,26.1-54.9,1.6-3.3,3.7-6.7,7.2-8.4,3.6-1.7,7.9-3.4,11.9-1.8,6.8,1.7,12.8,7.5,13.6,14.7.5,3.8-.8,7.4-2.4,10.8-9.3,19.4-18.5,38.9-27.8,58.3-1.7,3.4-3.3,7-2.9,10.9-.3,6.4,4.2,12.1,9.8,14.8,8.2,3.1,17.9-1.1,21.8-8.8,9.7-19.1,18.8-38.4,28.5-57.5,4.4-8.5,8.4-17.4,9.9-26.9,1-10,.8-20.4-3.4-29.7-7.1-17.7-23.2-31.5-42-35.3-8.2-1.7-16.5-1-24.8-1.1-4.6-.1-9.5.6-13.7-1.7-6-2.7-9.5-9.4-8.9-15.8-.4-7.3,5.4-14.1,12.3-16Z"/>
        <path class="cls-1" d="M29.6,244.1c1.4-.3,2.9-.4,4.4-.4,64,0,128.1,0,192.1,0,10.8-.3,20.4,11.6,16.4,22.1-2,7.1-9.2,11.7-16.4,11.8-64,0-128,0-192.1,0-5.8.1-12-2.3-15.3-7.3-2.6-3.9-4.1-9-2.4-13.6,1.6-6.2,6.9-11.4,13.3-12.5Z"/>
        <path class="cls-1" d="M479.3,317.9c8.2-2.1,16.9,3.2,19.8,11,11.6,30.4,11.3,65.1-.4,95.4-13.2,35.4-42.1,64.3-77.2,78.2-13.5,5.5-27.9,8.5-42.5,9.5-7.4.9-14.8-.2-22.1-.7-40.2-3.8-77.8-27.1-99.7-60.8-8-12.2-14.1-25.7-17.9-39.9-2.2-7,1.8-14.8,7.9-18.4,3.9-2.5,8.8-2.5,13.2-1.7,6.7,1.9,10.9,8.3,12.7,14.8,4.9,16.8,14.5,32.1,27.1,44.2,26.6,26.8,69.1,35.8,104.5,23.2,19.5-6.9,37-19.8,49.1-36.6,19.7-26.5,25.2-62.9,13.8-93.9-1-2.7-1.7-5.4-1.6-8.3-.3-7.6,5.8-14.4,13-16.1Z"/>
      </g>
    </g>
  </g>
</svg>